<?xml version="1.0" encoding="utf-8"?>
<!-- Generator: Adobe Illustrator 22.0.0, SVG Export Plug-In . SVG Version: 6.00 Build 0)  -->
<svg version="1.1" id="Layer_1" xmlns="http://www.w3.org/2000/svg" xmlns:xlink="http://www.w3.org/1999/xlink" x="0px" y="0px"
	 viewBox="0 0 61.7 22.2" style="enable-background:new 0 0 61.7 22.2;" xml:space="preserve">
<style type="text/css">
	.st0{fill:#4A62AC;}
	.st1{fill:#FFFFFF;}
	.st2{font-family:'Helvetica-Bold';}
	.st3{font-size:11.8462px;}
	.st4{fill:#F1F1F2;stroke:#808184;stroke-miterlimit:10;}
	.st5{fill:#DA4536;}
	.st6{fill:#404041;}
	.st7{fill:#5FA8DC;}
	.st8{enable-background:new    ;}
</style>
<g>
	<g>
		<g>
			<rect x="0.8" y="0.5" class="st0" width="60.3" height="21"/>
			<text transform="matrix(1 0 0 1 22.3859 15.3466)" class="st1 st2 st3">Share</text>
			<path class="st1" d="M18.3,15.3c0,0.8-0.3,1.4-0.8,1.9C17,17.8,16.4,18,15.6,18h-1.8v-5.8h1.9l0.3-2.1h-2.2V8.8
				c0-0.3,0.1-0.6,0.3-0.8c0.2-0.2,0.5-0.3,0.9-0.3h1.2v-2c-0.6-0.1-1.2-0.1-1.7-0.1c-0.9,0-1.6,0.3-2,0.8c-0.5,0.5-0.8,1.2-0.8,2.2
				v1.6H9.6v2.1h2.1V18H6.5c-0.7,0.1-1.3-0.2-1.9-0.8c-0.5-0.5-0.8-1.2-0.8-1.9v-9c0-0.8,0.3-1.4,0.8-1.9s1.2-0.8,1.9-0.8h9.1
				c0.7,0,1.3,0.3,1.9,0.8s0.8,1.2,0.8,1.9V15.3L18.3,15.3z"/>
		</g>
	</g>
	<g>
		<path class="st4" d="M121.2,60.5c0,1.1-0.9,2.1-1.9,2.1H65.6c-1.1,0-1.9-0.9-1.9-2.1V43.6c0-1.1,0.9-2.1,1.9-2.1h53.7
			c1.1,0,1.9,0.9,1.9,2.1V60.5z"/>
		<g>
			<polygon class="st5" points="85.7,49.7 83.9,49.7 83.9,51.4 82.2,51.4 82.2,53.1 83.9,53.1 83.9,54.8 85.7,54.8 85.7,53.1 
				87.4,53.1 87.4,51.4 85.7,51.4 			"/>
			<path class="st5" d="M73.9,51.4v2.4h3.4c-0.3,1.5-1.5,2.5-3.4,2.5c-2,0-3.7-1.7-3.7-3.8s1.6-3.8,3.7-3.8c0.9,0,1.8,0.3,2.4,0.9
				l1.8-1.8c-1.1-1-2.5-1.6-4.2-1.6c-3.4,0-6.2,2.8-6.2,6.2s2.8,6.2,6.2,6.2c3.6,0,6-2.5,6-6.1c0-0.5-0.1-0.9-0.1-1.3H73.9z"/>
		</g>
		<g>
			<path class="st6" d="M91.6,53.9l1.4-0.2c0.1,0.3,0.2,0.5,0.4,0.6c0.2,0.1,0.4,0.2,0.8,0.2c0.4,0,0.6-0.1,0.8-0.2
				c0.1-0.1,0.2-0.2,0.2-0.4c0-0.1,0-0.2-0.1-0.3c-0.1-0.1-0.2-0.1-0.5-0.2c-1.1-0.2-1.8-0.5-2.1-0.7c-0.4-0.3-0.6-0.7-0.6-1.2
				c0-0.5,0.2-0.8,0.5-1.1c0.4-0.3,0.9-0.5,1.7-0.5c0.7,0,1.2,0.1,1.6,0.3c0.3,0.2,0.6,0.6,0.7,1L95,51.6c-0.1-0.2-0.2-0.4-0.3-0.5
				C94.5,51.1,94.3,51,94,51c-0.4,0-0.6,0.1-0.8,0.2c-0.1,0.1-0.2,0.2-0.2,0.3c0,0.1,0,0.2,0.1,0.3c0.1,0.1,0.6,0.2,1.3,0.4
				c0.7,0.2,1.2,0.4,1.5,0.6c0.3,0.2,0.4,0.6,0.4,1c0,0.5-0.2,0.9-0.6,1.2c-0.4,0.3-1,0.5-1.8,0.5c-0.7,0-1.3-0.1-1.7-0.4
				C92,54.8,91.7,54.4,91.6,53.9z"/>
			<path class="st6" d="M99,48.2v2.6c0.4-0.5,1-0.8,1.6-0.8c0.3,0,0.6,0.1,0.9,0.2c0.3,0.1,0.4,0.3,0.6,0.5c0.1,0.2,0.2,0.4,0.3,0.6
				c0,0.2,0.1,0.6,0.1,1v3.1H101v-2.8c0-0.5,0-0.9-0.1-1c-0.1-0.1-0.1-0.3-0.3-0.4c-0.1-0.1-0.3-0.1-0.5-0.1c-0.2,0-0.4,0.1-0.6,0.2
				c-0.2,0.1-0.3,0.3-0.4,0.5c-0.1,0.2-0.1,0.6-0.1,1v2.6h-1.4v-7.2H99z"/>
			<path class="st6" d="M104.8,51.7l-1.3-0.2c0.1-0.5,0.4-0.9,0.7-1.1c0.3-0.2,0.9-0.4,1.5-0.4c0.6,0,1.1,0.1,1.4,0.2
				c0.3,0.1,0.5,0.3,0.6,0.6c0.1,0.2,0.2,0.6,0.2,1.2l0,1.6c0,0.5,0,0.8,0.1,1c0,0.2,0.1,0.5,0.2,0.7H107c0-0.1-0.1-0.2-0.1-0.4
				c0-0.1,0-0.1,0-0.2c-0.2,0.2-0.5,0.4-0.8,0.5c-0.3,0.1-0.6,0.2-0.9,0.2c-0.5,0-1-0.1-1.3-0.4s-0.5-0.7-0.5-1.1
				c0-0.3,0.1-0.6,0.2-0.8c0.1-0.2,0.3-0.4,0.6-0.5c0.3-0.1,0.6-0.2,1.1-0.3c0.6-0.1,1.1-0.2,1.3-0.3v-0.1c0-0.3-0.1-0.5-0.2-0.6
				c-0.1-0.1-0.4-0.2-0.7-0.2c-0.2,0-0.4,0-0.6,0.1S104.9,51.5,104.8,51.7z M106.7,52.8c-0.2,0.1-0.5,0.1-0.8,0.2
				c-0.4,0.1-0.6,0.2-0.8,0.2c-0.2,0.1-0.3,0.3-0.3,0.5c0,0.2,0.1,0.4,0.2,0.5c0.1,0.1,0.3,0.2,0.6,0.2c0.2,0,0.5-0.1,0.7-0.2
				c0.2-0.1,0.3-0.3,0.3-0.5c0-0.1,0.1-0.3,0.1-0.7V52.8z"/>
			<path class="st6" d="M110.7,55.4h-1.4v-5.2h1.3v0.7c0.2-0.4,0.4-0.6,0.6-0.7c0.2-0.1,0.4-0.2,0.6-0.2c0.3,0,0.6,0.1,0.9,0.3
				l-0.4,1.2c-0.2-0.2-0.4-0.2-0.6-0.2c-0.2,0-0.4,0.1-0.5,0.2c-0.1,0.1-0.2,0.3-0.3,0.6c-0.1,0.3-0.1,0.9-0.1,1.7V55.4z"/>
			<path class="st6" d="M116.4,53.7l1.4,0.2c-0.2,0.5-0.5,0.9-0.8,1.2c-0.4,0.3-0.9,0.4-1.4,0.4c-0.9,0-1.6-0.3-2-0.9
				c-0.3-0.5-0.5-1.1-0.5-1.8c0-0.9,0.2-1.5,0.7-2c0.5-0.5,1-0.7,1.7-0.7c0.8,0,1.4,0.3,1.8,0.8c0.4,0.5,0.7,1.3,0.6,2.4h-3.5
				c0,0.4,0.1,0.7,0.3,1c0.2,0.2,0.5,0.3,0.8,0.3c0.2,0,0.4-0.1,0.5-0.2C116.2,54.1,116.3,54,116.4,53.7z M116.4,52.3
				c0-0.4-0.1-0.7-0.3-0.9c-0.2-0.2-0.4-0.3-0.7-0.3c-0.3,0-0.6,0.1-0.7,0.3c-0.2,0.2-0.3,0.5-0.3,0.9H116.4z"/>
		</g>
	</g>
	<g>
		<path class="st7" d="M196.7,61.3c0,0.6-0.4,1-1.1,1h-67c-0.6,0-1.1-0.4-1.1-1V42.5c0-0.6,0.4-1,1.1-1h67c0.6,0,1.1,0.4,1.1,1
			L196.7,61.3L196.7,61.3z"/>
		<g>
			<path class="st1" d="M145.6,49.1c-0.4,0.2-0.8,0.3-1.3,0.3c0.4-0.3,0.8-0.6,1-1.1c-0.4,0.2-0.9,0.4-1.4,0.5
				c-0.4-0.4-1-0.6-1.5-0.6c-1.2,0-2.2,0.9-2.2,2c0,0.2,0,0.3,0.1,0.5c-1.7-0.2-3.4-1-4.4-2.2c-0.2,0.3-0.2,0.6-0.2,1
				c0,0.7,0.4,1.3,1,1.6c-0.4,0-0.6-0.1-1-0.3l0,0c0,1,0.8,1.7,1.6,1.9c-0.2,0-0.4,0.1-0.5,0.1c-0.1,0-0.3,0-0.4,0
				c0.3,0.8,1.1,1.4,1.9,1.4c-0.6,0.5-1.6,0.8-2.6,0.8c-0.2,0-0.3,0-0.5,0c1,0.5,2.1,0.9,3.2,0.9c3.9,0,6-3,6-5.6c0-0.1,0-0.2,0-0.3
				C144.9,49.9,145.3,49.5,145.6,49.1z"/>
		</g>
		<g class="st8">
			<path class="st1" d="M157,46.9v1.4h-3.1v7.9H152v-7.9h-3.1v-1.4H157z"/>
			<path class="st1" d="M156.1,49.6h1.4c0.1,0,0.2,0,0.3,0.1s0.2,0.1,0.2,0.2l1,3.5c0.1,0.2,0.1,0.4,0.1,0.6c0,0.2,0.1,0.4,0.1,0.5
				c0.1-0.2,0.1-0.4,0.2-0.5c0.1-0.2,0.1-0.4,0.2-0.6l1.2-3.5c0-0.1,0.1-0.2,0.2-0.2c0.1-0.1,0.2-0.1,0.3-0.1h0.8
				c0.1,0,0.2,0,0.3,0.1c0.1,0.1,0.1,0.1,0.2,0.2l1.2,3.5c0.1,0.2,0.1,0.4,0.2,0.6c0.1,0.2,0.1,0.4,0.2,0.6c0-0.2,0.1-0.4,0.1-0.6
				c0-0.2,0.1-0.4,0.2-0.6l1.1-3.5c0-0.1,0.1-0.2,0.2-0.2c0.1-0.1,0.2-0.1,0.3-0.1h1.3l-2.3,6.6h-1.4c-0.2,0-0.3-0.1-0.3-0.3
				l-1.3-3.8c-0.1-0.3-0.2-0.5-0.2-0.8c-0.1,0.3-0.1,0.5-0.2,0.8l-1.3,3.8c-0.1,0.2-0.2,0.3-0.4,0.3h-1.3L156.1,49.6z"/>
			<path class="st1" d="M171,49.5c0.5,0,0.9,0.1,1.3,0.2c0.4,0.1,0.7,0.3,1,0.6c0.3,0.3,0.5,0.6,0.6,0.9c0.2,0.4,0.2,0.8,0.2,1.3
				c0,0.2,0,0.4-0.1,0.5c-0.1,0.1-0.2,0.1-0.3,0.1h-4.5c0,0.3,0.1,0.6,0.2,0.9c0.1,0.2,0.2,0.5,0.4,0.6c0.2,0.2,0.4,0.3,0.6,0.4
				c0.2,0.1,0.5,0.1,0.8,0.1c0.3,0,0.5,0,0.7-0.1c0.2-0.1,0.4-0.1,0.5-0.2c0.2-0.1,0.3-0.1,0.4-0.2s0.2-0.1,0.3-0.1
				c0.2,0,0.3,0,0.3,0.2l0.5,0.6c-0.2,0.2-0.4,0.4-0.6,0.5c-0.2,0.1-0.5,0.3-0.7,0.3c-0.3,0.1-0.5,0.1-0.8,0.2s-0.5,0-0.8,0
				c-0.5,0-1-0.1-1.4-0.2c-0.4-0.2-0.8-0.4-1.1-0.7c-0.3-0.3-0.6-0.7-0.8-1.1c-0.2-0.4-0.3-1-0.3-1.5c0-0.5,0.1-0.9,0.2-1.3
				c0.2-0.4,0.4-0.7,0.7-1c0.3-0.3,0.7-0.5,1.1-0.7C170,49.5,170.5,49.5,171,49.5z M171,50.6c-0.5,0-0.9,0.1-1.2,0.4
				s-0.5,0.6-0.5,1.1h3.3c0-0.2,0-0.4-0.1-0.6c-0.1-0.2-0.2-0.3-0.3-0.5c-0.1-0.1-0.3-0.2-0.5-0.3C171.5,50.6,171.3,50.6,171,50.6z"
				/>
			<path class="st1" d="M178.5,49.5c0.5,0,0.9,0.1,1.3,0.2c0.4,0.1,0.7,0.3,1,0.6c0.3,0.3,0.5,0.6,0.6,0.9c0.2,0.4,0.2,0.8,0.2,1.3
				c0,0.2,0,0.4-0.1,0.5c-0.1,0.1-0.2,0.1-0.3,0.1h-4.4c0,0.3,0.1,0.6,0.2,0.9c0.1,0.2,0.2,0.5,0.4,0.6c0.2,0.2,0.4,0.3,0.6,0.4
				c0.2,0.1,0.5,0.1,0.8,0.1s0.5,0,0.7-0.1c0.2-0.1,0.4-0.1,0.5-0.2c0.2-0.1,0.3-0.1,0.4-0.2s0.2-0.1,0.3-0.1c0.2,0,0.3,0,0.3,0.2
				l0.5,0.6c-0.2,0.2-0.4,0.4-0.6,0.5s-0.5,0.3-0.7,0.3c-0.3,0.1-0.5,0.1-0.8,0.2s-0.5,0-0.8,0c-0.5,0-1-0.1-1.4-0.2
				s-0.8-0.4-1.1-0.7c-0.3-0.3-0.6-0.7-0.8-1.1c-0.2-0.4-0.3-1-0.3-1.5c0-0.5,0.1-0.9,0.2-1.3c0.2-0.4,0.4-0.7,0.7-1
				c0.3-0.3,0.7-0.5,1.1-0.7C177.5,49.5,178,49.5,178.5,49.5z M178.5,50.6c-0.5,0-0.9,0.1-1.2,0.4s-0.5,0.6-0.5,1.1h3.3
				c0-0.2,0-0.4-0.1-0.6c-0.1-0.2-0.2-0.3-0.3-0.5c-0.1-0.1-0.3-0.2-0.5-0.3C179,50.6,178.8,50.6,178.5,50.6z"/>
			<path class="st1" d="M185.2,56.3c-0.6,0-1.1-0.2-1.4-0.5c-0.3-0.3-0.5-0.8-0.5-1.3v-3.7h-0.7c-0.1,0-0.2,0-0.2-0.1
				s-0.1-0.1-0.1-0.3v-0.6l1.2-0.2l0.4-1.8c0-0.1,0.1-0.2,0.1-0.2c0.1,0,0.2-0.1,0.3-0.1h0.9v2.1h1.9v1.1H185v3.6
				c0,0.2,0.1,0.4,0.2,0.5c0.1,0.1,0.3,0.2,0.5,0.2c0.1,0,0.2,0,0.3,0c0.1,0,0.1,0,0.2-0.1c0.1,0,0.1,0,0.1-0.1c0,0,0.1,0,0.1,0
				c0.1,0,0.1,0,0.1,0c0,0,0.1,0.1,0.1,0.1l0.5,0.8c-0.3,0.2-0.5,0.3-0.9,0.4C185.9,56.3,185.6,56.3,185.2,56.3z"/>
		</g>
	</g>
</g>
</svg>
