<?xml version="1.0" encoding="utf-8"?>
<!-- Generator: Adobe Illustrator 22.0.0, SVG Export Plug-In . SVG Version: 6.00 Build 0)  -->
<svg version="1.1" id="Layer_1" xmlns="http://www.w3.org/2000/svg" xmlns:xlink="http://www.w3.org/1999/xlink" x="0px" y="0px"
	 viewBox="0 0 60 25" style="enable-background:new 0 0 60 25;" xml:space="preserve">
<style type="text/css">
	.st0{fill:#4A62AC;}
	.st1{fill:#FFFFFF;}
	.st2{fill:#F1F1F2;stroke:#808184;stroke-miterlimit:10;}
	.st3{fill:#DA4536;}
	.st4{fill:#404041;}
	.st5{fill:#5FA8DC;}
	.st6{enable-background:new    ;}
</style>
<g>
	<g>
		<g>
			<rect x="-61.8" y="-38.6" class="st0" width="60.3" height="21"/>
			<text transform="matrix(1 0 0 1 -40.2808 -23.8201)" class="st1" style="font-family:'Helvetica-Bold'; font-size:11.8462px;">Share</text>
			<path class="st1" d="M-44.3-23.9c0,0.8-0.3,1.4-0.8,1.9c-0.5,0.5-1.2,0.8-1.9,0.8h-1.8v-5.8h1.9l0.3-2.1h-2.2v-1.3
				c0-0.3,0.1-0.6,0.3-0.8c0.2-0.2,0.5-0.3,0.9-0.3h1.2v-2c-0.6-0.1-1.2-0.1-1.7-0.1c-0.9,0-1.6,0.3-2,0.8c-0.5,0.5-0.8,1.2-0.8,2.2
				v1.6h-2.1v2.1h2.1v5.8h-5.2c-0.7,0.1-1.3-0.2-1.9-0.8c-0.5-0.5-0.8-1.2-0.8-1.9v-9c0-0.8,0.3-1.4,0.8-1.9
				c0.5-0.5,1.2-0.8,1.9-0.8h9.1c0.7,0,1.3,0.3,1.9,0.8c0.5,0.5,0.8,1.2,0.8,1.9V-23.9L-44.3-23.9z"/>
		</g>
	</g>
	<g>
		<path class="st2" d="M58.6,21.3c0,1.1-0.9,2.1-1.9,2.1H2.9c-1.1,0-1.9-0.9-1.9-2.1V4.5c0-1.1,0.9-2.1,1.9-2.1h53.7
			c1.1,0,1.9,0.9,1.9,2.1V21.3z"/>
		<g>
			<polygon class="st3" points="23,10.5 21.3,10.5 21.3,12.2 19.6,12.2 19.6,14 21.3,14 21.3,15.7 23,15.7 23,14 24.7,14 24.7,12.2 
				23,12.2 			"/>
			<path class="st3" d="M11.3,12.2v2.4h3.4c-0.3,1.5-1.5,2.5-3.4,2.5c-2,0-3.7-1.7-3.7-3.8s1.6-3.8,3.7-3.8c0.9,0,1.8,0.3,2.4,0.9
				l1.8-1.8c-1.1-1-2.5-1.6-4.2-1.6C7.8,7.1,5,9.9,5,13.4s2.8,6.2,6.2,6.2c3.6,0,6-2.5,6-6.1c0-0.5-0.1-0.9-0.1-1.3H11.3z"/>
		</g>
		<g>
			<path class="st4" d="M28.9,14.7l1.4-0.2c0.1,0.3,0.2,0.5,0.4,0.6c0.2,0.1,0.4,0.2,0.8,0.2c0.4,0,0.6-0.1,0.8-0.2
				c0.1-0.1,0.2-0.2,0.2-0.4c0-0.1,0-0.2-0.1-0.3c-0.1-0.1-0.2-0.1-0.5-0.2c-1.1-0.2-1.8-0.5-2.1-0.7c-0.4-0.3-0.6-0.7-0.6-1.2
				c0-0.5,0.2-0.8,0.5-1.1c0.4-0.3,0.9-0.5,1.7-0.5c0.7,0,1.2,0.1,1.6,0.3s0.6,0.6,0.7,1l-1.3,0.2c-0.1-0.2-0.2-0.4-0.3-0.5
				c-0.2-0.1-0.4-0.2-0.7-0.2c-0.4,0-0.6,0.1-0.8,0.2c-0.1,0.1-0.2,0.2-0.2,0.3c0,0.1,0,0.2,0.1,0.3c0.1,0.1,0.6,0.2,1.3,0.4
				c0.7,0.2,1.2,0.4,1.5,0.6c0.3,0.2,0.4,0.6,0.4,1c0,0.5-0.2,0.9-0.6,1.2c-0.4,0.3-1,0.5-1.8,0.5c-0.7,0-1.3-0.1-1.7-0.4
				C29.3,15.6,29,15.2,28.9,14.7z"/>
			<path class="st4" d="M36.4,9v2.6c0.4-0.5,1-0.8,1.6-0.8c0.3,0,0.6,0.1,0.9,0.2c0.3,0.1,0.4,0.3,0.6,0.5c0.1,0.2,0.2,0.4,0.3,0.6
				c0,0.2,0.1,0.6,0.1,1v3.1h-1.4v-2.8c0-0.5,0-0.9-0.1-1c-0.1-0.1-0.1-0.3-0.3-0.4c-0.1-0.1-0.3-0.1-0.5-0.1
				c-0.2,0-0.4,0.1-0.6,0.2c-0.2,0.1-0.3,0.3-0.4,0.5c-0.1,0.2-0.1,0.6-0.1,1v2.6H35V9H36.4z"/>
			<path class="st4" d="M42.2,12.6l-1.3-0.2c0.1-0.5,0.4-0.9,0.7-1.1c0.3-0.2,0.9-0.4,1.5-0.4c0.6,0,1.1,0.1,1.4,0.2
				c0.3,0.1,0.5,0.3,0.6,0.6c0.1,0.2,0.2,0.6,0.2,1.2l0,1.6c0,0.5,0,0.8,0.1,1c0,0.2,0.1,0.5,0.2,0.7h-1.4c0-0.1-0.1-0.2-0.1-0.4
				c0-0.1,0-0.1,0-0.2c-0.2,0.2-0.5,0.4-0.8,0.5c-0.3,0.1-0.6,0.2-0.9,0.2c-0.5,0-1-0.1-1.3-0.4c-0.3-0.3-0.5-0.7-0.5-1.1
				c0-0.3,0.1-0.6,0.2-0.8c0.1-0.2,0.3-0.4,0.6-0.5c0.3-0.1,0.6-0.2,1.1-0.3c0.6-0.1,1.1-0.2,1.3-0.3v-0.1c0-0.3-0.1-0.5-0.2-0.6
				c-0.1-0.1-0.4-0.2-0.7-0.2c-0.2,0-0.4,0-0.6,0.1C42.4,12.1,42.3,12.3,42.2,12.6z M44,13.7c-0.2,0.1-0.5,0.1-0.8,0.2
				c-0.4,0.1-0.6,0.2-0.8,0.2c-0.2,0.1-0.3,0.3-0.3,0.5c0,0.2,0.1,0.4,0.2,0.5c0.1,0.1,0.3,0.2,0.6,0.2c0.2,0,0.5-0.1,0.7-0.2
				c0.2-0.1,0.3-0.3,0.3-0.5c0-0.1,0.1-0.3,0.1-0.7V13.7z"/>
			<path class="st4" d="M48.1,16.2h-1.4V11H48v0.7c0.2-0.4,0.4-0.6,0.6-0.7c0.2-0.1,0.4-0.2,0.6-0.2c0.3,0,0.6,0.1,0.9,0.3l-0.4,1.2
				c-0.2-0.2-0.4-0.2-0.6-0.2c-0.2,0-0.4,0.1-0.5,0.2c-0.1,0.1-0.2,0.3-0.3,0.6c-0.1,0.3-0.1,0.9-0.1,1.7V16.2z"/>
			<path class="st4" d="M53.7,14.5l1.4,0.2c-0.2,0.5-0.5,0.9-0.8,1.2c-0.4,0.3-0.9,0.4-1.4,0.4c-0.9,0-1.6-0.3-2-0.9
				c-0.3-0.5-0.5-1.1-0.5-1.8c0-0.9,0.2-1.5,0.7-2c0.5-0.5,1-0.7,1.7-0.7c0.8,0,1.4,0.3,1.8,0.8c0.4,0.5,0.7,1.3,0.6,2.4h-3.5
				c0,0.4,0.1,0.7,0.3,1c0.2,0.2,0.5,0.3,0.8,0.3c0.2,0,0.4-0.1,0.5-0.2C53.5,15,53.6,14.8,53.7,14.5z M53.8,13.1
				c0-0.4-0.1-0.7-0.3-0.9c-0.2-0.2-0.4-0.3-0.7-0.3c-0.3,0-0.6,0.1-0.7,0.3c-0.2,0.2-0.3,0.5-0.3,0.9H53.8z"/>
		</g>
	</g>
	<g>
		<path class="st5" d="M134,22.1c0,0.6-0.4,1-1.1,1h-67c-0.6,0-1.1-0.4-1.1-1V3.4c0-0.6,0.4-1,1.1-1h67c0.6,0,1.1,0.4,1.1,1
			L134,22.1L134,22.1z"/>
		<g>
			<path class="st1" d="M83,9.9c-0.4,0.2-0.8,0.3-1.3,0.3c0.4-0.3,0.8-0.6,1-1.1c-0.4,0.2-0.9,0.4-1.4,0.5c-0.4-0.4-1-0.6-1.5-0.6
				c-1.2,0-2.2,0.9-2.2,2c0,0.2,0,0.3,0.1,0.5c-1.7-0.2-3.4-1-4.4-2.2C73,9.6,73,9.9,73,10.3c0,0.7,0.4,1.3,1,1.6
				c-0.4,0-0.6-0.1-1-0.3l0,0c0,1,0.8,1.7,1.6,1.9c-0.2,0-0.4,0.1-0.5,0.1s-0.3,0-0.4,0c0.3,0.8,1.1,1.4,1.9,1.4
				C75,15.5,74,15.8,73,15.8c-0.2,0-0.3,0-0.5,0c1,0.5,2.1,0.9,3.2,0.9c3.9,0,6-3,6-5.6c0-0.1,0-0.2,0-0.3
				C82.2,10.7,82.6,10.3,83,9.9z"/>
		</g>
		<g class="st6">
			<path class="st1" d="M94.3,7.7v1.4h-3.1V17h-1.9V9.1h-3.1V7.7H94.3z"/>
			<path class="st1" d="M93.4,10.4h1.4c0.1,0,0.2,0,0.3,0.1c0.1,0.1,0.2,0.1,0.2,0.2l1,3.5c0.1,0.2,0.1,0.4,0.1,0.6
				c0,0.2,0.1,0.4,0.1,0.5c0.1-0.2,0.1-0.4,0.2-0.5c0.1-0.2,0.1-0.4,0.2-0.6l1.2-3.5c0-0.1,0.1-0.2,0.2-0.2c0.1-0.1,0.2-0.1,0.3-0.1
				h0.8c0.1,0,0.2,0,0.3,0.1s0.1,0.1,0.2,0.2l1.2,3.5c0.1,0.2,0.1,0.4,0.2,0.6c0.1,0.2,0.1,0.4,0.2,0.6c0-0.2,0.1-0.4,0.1-0.6
				c0-0.2,0.1-0.4,0.2-0.6l1.1-3.5c0-0.1,0.1-0.2,0.2-0.2c0.1-0.1,0.2-0.1,0.3-0.1h1.3l-2.3,6.6h-1.4c-0.2,0-0.3-0.1-0.3-0.3
				l-1.3-3.8c-0.1-0.3-0.2-0.5-0.2-0.8c-0.1,0.3-0.1,0.5-0.2,0.8l-1.3,3.8C97.4,16.9,97.2,17,97,17h-1.3L93.4,10.4z"/>
			<path class="st1" d="M108.3,10.3c0.5,0,0.9,0.1,1.3,0.2c0.4,0.1,0.7,0.3,1,0.6c0.3,0.3,0.5,0.6,0.6,0.9c0.2,0.4,0.2,0.8,0.2,1.3
				c0,0.2,0,0.4-0.1,0.5c-0.1,0.1-0.2,0.1-0.3,0.1h-4.5c0,0.3,0.1,0.6,0.2,0.9c0.1,0.2,0.2,0.5,0.4,0.6c0.2,0.2,0.4,0.3,0.6,0.4
				c0.2,0.1,0.5,0.1,0.8,0.1c0.3,0,0.5,0,0.7-0.1c0.2-0.1,0.4-0.1,0.5-0.2c0.2-0.1,0.3-0.1,0.4-0.2c0.1-0.1,0.2-0.1,0.3-0.1
				c0.2,0,0.3,0,0.3,0.2l0.5,0.6c-0.2,0.2-0.4,0.4-0.6,0.5c-0.2,0.1-0.5,0.3-0.7,0.3s-0.5,0.1-0.8,0.2c-0.3,0-0.5,0-0.8,0
				c-0.5,0-1-0.1-1.4-0.2s-0.8-0.4-1.1-0.7c-0.3-0.3-0.6-0.7-0.8-1.1c-0.2-0.4-0.3-1-0.3-1.5c0-0.5,0.1-0.9,0.2-1.3
				c0.2-0.4,0.4-0.7,0.7-1c0.3-0.3,0.7-0.5,1.1-0.7C107.3,10.4,107.8,10.3,108.3,10.3z M108.4,11.4c-0.5,0-0.9,0.1-1.2,0.4
				c-0.3,0.3-0.5,0.6-0.5,1.1h3.3c0-0.2,0-0.4-0.1-0.6c-0.1-0.2-0.2-0.3-0.3-0.5c-0.1-0.1-0.3-0.2-0.5-0.3
				C108.9,11.5,108.6,11.4,108.4,11.4z"/>
			<path class="st1" d="M115.8,10.3c0.5,0,0.9,0.1,1.3,0.2c0.4,0.1,0.7,0.3,1,0.6c0.3,0.3,0.5,0.6,0.6,0.9c0.2,0.4,0.2,0.8,0.2,1.3
				c0,0.2,0,0.4-0.1,0.5c-0.1,0.1-0.2,0.1-0.3,0.1h-4.4c0,0.3,0.1,0.6,0.2,0.9c0.1,0.2,0.2,0.5,0.4,0.6s0.4,0.3,0.6,0.4
				c0.2,0.1,0.5,0.1,0.8,0.1c0.3,0,0.5,0,0.7-0.1c0.2-0.1,0.4-0.1,0.5-0.2c0.2-0.1,0.3-0.1,0.4-0.2c0.1-0.1,0.2-0.1,0.3-0.1
				c0.2,0,0.3,0,0.3,0.2l0.5,0.6c-0.2,0.2-0.4,0.4-0.6,0.5c-0.2,0.1-0.5,0.3-0.7,0.3c-0.3,0.1-0.5,0.1-0.8,0.2c-0.3,0-0.5,0-0.8,0
				c-0.5,0-1-0.1-1.4-0.2c-0.4-0.2-0.8-0.4-1.1-0.7c-0.3-0.3-0.6-0.7-0.8-1.1c-0.2-0.4-0.3-1-0.3-1.5c0-0.5,0.1-0.9,0.2-1.3
				c0.2-0.4,0.4-0.7,0.7-1c0.3-0.3,0.7-0.5,1.1-0.7C114.8,10.4,115.3,10.3,115.8,10.3z M115.9,11.4c-0.5,0-0.9,0.1-1.2,0.4
				c-0.3,0.3-0.5,0.6-0.5,1.1h3.3c0-0.2,0-0.4-0.1-0.6c-0.1-0.2-0.2-0.3-0.3-0.5c-0.1-0.1-0.3-0.2-0.5-0.3
				C116.4,11.5,116.1,11.4,115.9,11.4z"/>
			<path class="st1" d="M122.6,17.1c-0.6,0-1.1-0.2-1.4-0.5c-0.3-0.3-0.5-0.8-0.5-1.3v-3.7h-0.7c-0.1,0-0.2,0-0.2-0.1
				c-0.1-0.1-0.1-0.1-0.1-0.3v-0.6l1.2-0.2l0.4-1.8c0-0.1,0.1-0.2,0.1-0.2c0.1,0,0.2-0.1,0.3-0.1h0.9v2.1h1.9v1.1h-1.9v3.6
				c0,0.2,0.1,0.4,0.2,0.5c0.1,0.1,0.3,0.2,0.5,0.2c0.1,0,0.2,0,0.3,0c0.1,0,0.1,0,0.2-0.1c0.1,0,0.1,0,0.1-0.1c0,0,0.1,0,0.1,0
				c0.1,0,0.1,0,0.1,0c0,0,0.1,0.1,0.1,0.1l0.5,0.8c-0.3,0.2-0.5,0.3-0.9,0.4C123.2,17.1,122.9,17.1,122.6,17.1z"/>
		</g>
	</g>
</g>
</svg>
