<?xml version="1.0" encoding="utf-8"?>
<!-- Generator: Adobe Illustrator 22.0.0, SVG Export Plug-In . SVG Version: 6.00 Build 0)  -->
<svg version="1.1" id="Layer_1" xmlns="http://www.w3.org/2000/svg" xmlns:xlink="http://www.w3.org/1999/xlink" x="0px" y="0px"
	 viewBox="0 0 99 140" style="enable-background:new 0 0 99 140;" xml:space="preserve">
<style type="text/css">
	.st0{fill:#3D58A6;}
</style>
<path class="st0" d="M91.4,90.1c-0.8-0.7-2.1-0.6-2.8,0.2l-13.7,16.1l-8.7-6.9c-0.9-0.7-2.1-0.5-2.8,0.3c-0.7,0.9-0.5,2.1,0.3,2.8
	l10.2,8.1c0.4,0.3,0.8,0.4,1.2,0.4c0.6,0,1.1-0.2,1.5-0.7l14.9-17.5C92.4,92.1,92.3,90.8,91.4,90.1z M77.6,123.3c-1.1,0-2,0.9-2,2
	c0,3.3-2.7,5.9-5.9,5.9H17.2c-3.3,0-5.9-2.6-5.9-5.9V17.4c0-3.3,2.7-5.9,5.9-5.9h52.5c3.3,0,5.9,2.6,5.9,5.9v60.3c0,1.1,0.9,2,2,2
	c1.1,0,2-0.9,2-2V44.1c1.5-0.3,2.6-1.6,2.6-3.2v-8.6c0-1.6-1.1-2.9-2.6-3.2V17.4c0-5.4-4.4-9.8-9.9-9.8H17.2c-5.5,0-9.9,4.4-9.9,9.8
	v107.8c0,5.4,4.4,9.8,9.9,9.8h52.5c5,0,9.2-3.7,9.8-8.6c0.1-0.2,0.1-0.4,0.1-0.6v-0.7C79.5,124.2,78.7,123.3,77.6,123.3z M53.3,17.6
	c1.1,0,2-0.9,2-2s-0.9-2-2-2H33.5c-1.1,0-2,0.9-2,2c0,1.1,0.9,2,2,2H53.3z M37.9,124.4c0,3,2.5,5.5,5.5,5.5c3,0,5.5-2.5,5.5-5.5
	s-2.5-5.5-5.5-5.5C40.4,118.9,37.9,121.4,37.9,124.4z M45,124.4c0,0.8-0.7,1.5-1.5,1.5s-1.5-0.7-1.5-1.5c0-0.8,0.7-1.5,1.5-1.5
	S45,123.5,45,124.4z M67,79.5c1.2,0,2.2-1,2.2-2.2V33.3c0-3.7-3.5-6.9-7.6-6.9H25.9c-4.2,0-7.6,3.4-7.6,7.5v73.5
	c0,4.2,3.4,7.5,7.6,7.5h31.2c1.2,0,2.2-1,2.2-2.2s-1-2.2-2.2-2.2H25.9c-1.8,0-3.2-1.4-3.2-3.2V34c0-1.8,1.4-3.2,3.2-3.2h35.7
	c1.9,0,3.2,1.5,3.2,2.5v44.1C64.9,78.6,65.8,79.5,67,79.5z"/>
</svg>
