<?xml version="1.0" encoding="utf-8"?>
<!-- Generator: Adobe Illustrator 22.0.0, SVG Export Plug-In . SVG Version: 6.00 Build 0)  -->
<svg version="1.1" id="Layer_1" xmlns="http://www.w3.org/2000/svg" xmlns:xlink="http://www.w3.org/1999/xlink" x="0px" y="0px"
	 viewBox="0 0 45 43" style="enable-background:new 0 0 45 43;" xml:space="preserve">
<style type="text/css">
	.st0{fill:#EE4036;}
</style>
<path class="st0" d="M43,39.9l-9.6-9.6c0.8-1,1.4-2.2,1.9-3.4c3.6-8.6-0.4-18.5-9-22.1c-2.1-0.9-4.3-1.3-6.6-1.3l0,0
	C10.5,3.5,3,11,3,20.3c0,6.8,4.1,12.9,10.3,15.5c5.8,2.4,12.1,1.4,16.8-2.2l9.5,9.5L43,39.9z M7.8,20.3c0-6.7,5.4-12.1,12.1-12.1
	c6.7,0,12.1,5.4,12.1,12.1s-5.4,12.1-12.1,12.1C13.2,32.4,7.8,27,7.8,20.3z"/>
</svg>
