<?xml version="1.0" encoding="utf-8"?>
<!-- Generator: Adobe Illustrator 22.0.0, SVG Export Plug-In . SVG Version: 6.00 Build 0)  -->
<svg version="1.1" id="Layer_1" xmlns="http://www.w3.org/2000/svg" xmlns:xlink="http://www.w3.org/1999/xlink" x="0px" y="0px"
	 viewBox="0 0 71 23" style="enable-background:new 0 0 71 23;" xml:space="preserve">
<style type="text/css">
	.st0{fill:#4A62AC;}
	.st1{fill:#FFFFFF;}
	.st2{fill:#F1F1F2;stroke:#808184;stroke-miterlimit:10;}
	.st3{fill:#DA4536;}
	.st4{fill:#404041;}
	.st5{fill:#5FA8DC;}
	.st6{enable-background:new    ;}
</style>
<g>
	<g>
		<g>
			<rect x="-125.8" y="-39.6" class="st0" width="60.3" height="21"/>
			<text transform="matrix(1 0 0 1 -104.2808 -24.8201)" class="st1" style="font-family:'Helvetica-Bold'; font-size:11.8462px;">Share</text>
			<path class="st1" d="M-108.3-24.9c0,0.8-0.3,1.4-0.8,1.9c-0.5,0.5-1.2,0.8-1.9,0.8h-1.8v-5.8h1.9l0.3-2.1h-2.2v-1.3
				c0-0.3,0.1-0.6,0.3-0.8c0.2-0.2,0.5-0.3,0.9-0.3h1.2v-2c-0.6-0.1-1.2-0.1-1.7-0.1c-0.9,0-1.6,0.3-2,0.8c-0.5,0.5-0.8,1.2-0.8,2.2
				v1.6h-2.1v2.1h2.1v5.8h-5.2c-0.7,0.1-1.3-0.2-1.9-0.8s-0.8-1.2-0.8-1.9v-9c0-0.8,0.3-1.4,0.8-1.9s1.2-0.8,1.9-0.8h9.1
				c0.7,0,1.3,0.3,1.9,0.8c0.5,0.5,0.8,1.2,0.8,1.9V-24.9L-108.3-24.9z"/>
		</g>
	</g>
	<g>
		<path class="st2" d="M-5.4,20.3c0,1.1-0.9,2.1-1.9,2.1h-53.7c-1.1,0-1.9-0.9-1.9-2.1V3.5c0-1.1,0.9-2.1,1.9-2.1h53.7
			c1.1,0,1.9,0.9,1.9,2.1V20.3z"/>
		<g>
			<polygon class="st3" points="-41,9.5 -42.7,9.5 -42.7,11.2 -44.4,11.2 -44.4,13 -42.7,13 -42.7,14.7 -41,14.7 -41,13 -39.3,13 
				-39.3,11.2 -41,11.2 			"/>
			<path class="st3" d="M-52.7,11.2v2.4h3.4c-0.3,1.5-1.5,2.5-3.4,2.5c-2,0-3.7-1.7-3.7-3.8s1.6-3.8,3.7-3.8c0.9,0,1.8,0.3,2.4,0.9
				l1.8-1.8c-1.1-1-2.5-1.6-4.2-1.6c-3.4,0-6.2,2.8-6.2,6.2s2.8,6.2,6.2,6.2c3.6,0,6-2.5,6-6.1c0-0.5-0.1-0.9-0.1-1.3H-52.7z"/>
		</g>
		<g>
			<path class="st4" d="M-35.1,13.7l1.4-0.2c0.1,0.3,0.2,0.5,0.4,0.6c0.2,0.1,0.4,0.2,0.8,0.2c0.4,0,0.6-0.1,0.8-0.2
				c0.1-0.1,0.2-0.2,0.2-0.4c0-0.1,0-0.2-0.1-0.3c-0.1-0.1-0.2-0.1-0.5-0.2c-1.1-0.2-1.8-0.5-2.1-0.7c-0.4-0.3-0.6-0.7-0.6-1.2
				c0-0.5,0.2-0.8,0.5-1.1c0.4-0.3,0.9-0.5,1.7-0.5c0.7,0,1.2,0.1,1.6,0.3s0.6,0.6,0.7,1l-1.3,0.2c-0.1-0.2-0.2-0.4-0.3-0.5
				c-0.2-0.1-0.4-0.2-0.7-0.2c-0.4,0-0.6,0.1-0.8,0.2c-0.1,0.1-0.2,0.2-0.2,0.3c0,0.1,0,0.2,0.1,0.3c0.1,0.1,0.6,0.2,1.3,0.4
				c0.7,0.2,1.2,0.4,1.5,0.6c0.3,0.2,0.4,0.6,0.4,1c0,0.5-0.2,0.9-0.6,1.2c-0.4,0.3-1,0.5-1.8,0.5c-0.7,0-1.3-0.1-1.7-0.4
				C-34.7,14.6-35,14.2-35.1,13.7z"/>
			<path class="st4" d="M-27.6,8v2.6c0.4-0.5,1-0.8,1.6-0.8c0.3,0,0.6,0.1,0.9,0.2c0.3,0.1,0.4,0.3,0.6,0.5c0.1,0.2,0.2,0.4,0.3,0.6
				c0,0.2,0.1,0.6,0.1,1v3.1h-1.4v-2.8c0-0.5,0-0.9-0.1-1c-0.1-0.1-0.1-0.3-0.3-0.4c-0.1-0.1-0.3-0.1-0.5-0.1
				c-0.2,0-0.4,0.1-0.6,0.2c-0.2,0.1-0.3,0.3-0.4,0.5c-0.1,0.2-0.1,0.6-0.1,1v2.6H-29V8H-27.6z"/>
			<path class="st4" d="M-21.8,11.6l-1.3-0.2c0.1-0.5,0.4-0.9,0.7-1.1c0.3-0.2,0.9-0.4,1.5-0.4c0.6,0,1.1,0.1,1.4,0.2
				c0.3,0.1,0.5,0.3,0.6,0.6c0.1,0.2,0.2,0.6,0.2,1.2l0,1.6c0,0.5,0,0.8,0.1,1c0,0.2,0.1,0.5,0.2,0.7h-1.4c0-0.1-0.1-0.2-0.1-0.4
				c0-0.1,0-0.1,0-0.2c-0.2,0.2-0.5,0.4-0.8,0.5c-0.3,0.1-0.6,0.2-0.9,0.2c-0.5,0-1-0.1-1.3-0.4c-0.3-0.3-0.5-0.7-0.5-1.1
				c0-0.3,0.1-0.6,0.2-0.8c0.1-0.2,0.3-0.4,0.6-0.5c0.3-0.1,0.6-0.2,1.1-0.3c0.6-0.1,1.1-0.2,1.3-0.3v-0.1c0-0.3-0.1-0.5-0.2-0.6
				c-0.1-0.1-0.4-0.2-0.7-0.2c-0.2,0-0.4,0-0.6,0.1C-21.6,11.1-21.7,11.3-21.8,11.6z M-20,12.7c-0.2,0.1-0.5,0.1-0.8,0.2
				c-0.4,0.1-0.6,0.2-0.8,0.2c-0.2,0.1-0.3,0.3-0.3,0.5c0,0.2,0.1,0.4,0.2,0.5c0.1,0.1,0.3,0.2,0.6,0.2c0.2,0,0.5-0.1,0.7-0.2
				c0.2-0.1,0.3-0.3,0.3-0.5c0-0.1,0.1-0.3,0.1-0.7V12.7z"/>
			<path class="st4" d="M-15.9,15.2h-1.4V10h1.3v0.7c0.2-0.4,0.4-0.6,0.6-0.7c0.2-0.1,0.4-0.2,0.6-0.2c0.3,0,0.6,0.1,0.9,0.3
				l-0.4,1.2c-0.2-0.2-0.4-0.2-0.6-0.2c-0.2,0-0.4,0.1-0.5,0.2c-0.1,0.1-0.2,0.3-0.3,0.6c-0.1,0.3-0.1,0.9-0.1,1.7V15.2z"/>
			<path class="st4" d="M-10.3,13.5l1.4,0.2c-0.2,0.5-0.5,0.9-0.8,1.2c-0.4,0.3-0.9,0.4-1.4,0.4c-0.9,0-1.6-0.3-2-0.9
				c-0.3-0.5-0.5-1.1-0.5-1.8c0-0.9,0.2-1.5,0.7-2c0.5-0.5,1-0.7,1.7-0.7c0.8,0,1.4,0.3,1.8,0.8c0.4,0.5,0.7,1.3,0.6,2.4h-3.5
				c0,0.4,0.1,0.7,0.3,1c0.2,0.2,0.5,0.3,0.8,0.3c0.2,0,0.4-0.1,0.5-0.2C-10.5,14-10.4,13.8-10.3,13.5z M-10.2,12.1
				c0-0.4-0.1-0.7-0.3-0.9c-0.2-0.2-0.4-0.3-0.7-0.3c-0.3,0-0.6,0.1-0.7,0.3c-0.2,0.2-0.3,0.5-0.3,0.9H-10.2z"/>
		</g>
	</g>
	<g>
		<path class="st5" d="M70,21.1c0,0.6-0.4,1-1.1,1h-67c-0.6,0-1.1-0.4-1.1-1V2.4c0-0.6,0.4-1,1.1-1h67c0.6,0,1.1,0.4,1.1,1L70,21.1
			L70,21.1z"/>
		<g>
			<path class="st1" d="M19,8.9c-0.4,0.2-0.8,0.3-1.3,0.3c0.4-0.3,0.8-0.6,1-1.1c-0.4,0.2-0.9,0.4-1.4,0.5c-0.4-0.4-1-0.6-1.5-0.6
				c-1.2,0-2.2,0.9-2.2,2c0,0.2,0,0.3,0.1,0.5c-1.7-0.2-3.4-1-4.4-2.2C9,8.6,9,8.9,9,9.3c0,0.7,0.4,1.3,1,1.6c-0.4,0-0.6-0.1-1-0.3
				l0,0c0,1,0.8,1.7,1.6,1.9c-0.2,0-0.4,0.1-0.5,0.1s-0.3,0-0.4,0c0.3,0.8,1.1,1.4,1.9,1.4C11,14.5,10,14.8,9,14.8
				c-0.2,0-0.3,0-0.5,0c1,0.5,2.1,0.9,3.2,0.9c3.9,0,6-3,6-5.6c0-0.1,0-0.2,0-0.3C18.2,9.7,18.6,9.3,19,8.9z"/>
		</g>
		<g class="st6">
			<path class="st1" d="M30.3,6.7v1.4h-3.1V16h-1.9V8.1h-3.1V6.7H30.3z"/>
			<path class="st1" d="M29.4,9.4h1.4c0.1,0,0.2,0,0.3,0.1c0.1,0.1,0.2,0.1,0.2,0.2l1,3.5c0.1,0.2,0.1,0.4,0.1,0.6
				c0,0.2,0.1,0.4,0.1,0.5c0.1-0.2,0.1-0.4,0.2-0.5c0.1-0.2,0.1-0.4,0.2-0.6l1.2-3.5c0-0.1,0.1-0.2,0.2-0.2c0.1-0.1,0.2-0.1,0.3-0.1
				h0.8c0.1,0,0.2,0,0.3,0.1c0.1,0.1,0.1,0.1,0.2,0.2l1.2,3.5c0.1,0.2,0.1,0.4,0.2,0.6c0.1,0.2,0.1,0.4,0.2,0.6
				c0-0.2,0.1-0.4,0.1-0.6c0-0.2,0.1-0.4,0.2-0.6l1.1-3.5c0-0.1,0.1-0.2,0.2-0.2c0.1-0.1,0.2-0.1,0.3-0.1h1.3L38.1,16h-1.4
				c-0.2,0-0.3-0.1-0.3-0.3l-1.3-3.8c-0.1-0.3-0.2-0.5-0.2-0.8c-0.1,0.3-0.1,0.5-0.2,0.8l-1.3,3.8C33.4,15.9,33.2,16,33,16h-1.3
				L29.4,9.4z"/>
			<path class="st1" d="M44.3,9.3c0.5,0,0.9,0.1,1.3,0.2c0.4,0.1,0.7,0.3,1,0.6c0.3,0.3,0.5,0.6,0.6,0.9c0.2,0.4,0.2,0.8,0.2,1.3
				c0,0.2,0,0.4-0.1,0.5c-0.1,0.1-0.2,0.1-0.3,0.1h-4.5c0,0.3,0.1,0.6,0.2,0.9c0.1,0.2,0.2,0.5,0.4,0.6s0.4,0.3,0.6,0.4
				c0.2,0.1,0.5,0.1,0.8,0.1s0.5,0,0.7-0.1c0.2-0.1,0.4-0.1,0.5-0.2c0.2-0.1,0.3-0.1,0.4-0.2c0.1-0.1,0.2-0.1,0.3-0.1
				c0.2,0,0.3,0,0.3,0.2l0.5,0.6c-0.2,0.2-0.4,0.4-0.6,0.5c-0.2,0.1-0.5,0.3-0.7,0.3c-0.3,0.1-0.5,0.1-0.8,0.2c-0.3,0-0.5,0-0.8,0
				c-0.5,0-1-0.1-1.4-0.2c-0.4-0.2-0.8-0.4-1.1-0.7c-0.3-0.3-0.6-0.7-0.8-1.1c-0.2-0.4-0.3-1-0.3-1.5c0-0.5,0.1-0.9,0.2-1.3
				s0.4-0.7,0.7-1c0.3-0.3,0.7-0.5,1.1-0.7C43.3,9.4,43.8,9.3,44.3,9.3z M44.4,10.4c-0.5,0-0.9,0.1-1.2,0.4
				c-0.3,0.3-0.5,0.6-0.5,1.1h3.3c0-0.2,0-0.4-0.1-0.6c-0.1-0.2-0.2-0.3-0.3-0.5c-0.1-0.1-0.3-0.2-0.5-0.3
				C44.9,10.5,44.6,10.4,44.4,10.4z"/>
			<path class="st1" d="M51.8,9.3c0.5,0,0.9,0.1,1.3,0.2c0.4,0.1,0.7,0.3,1,0.6c0.3,0.3,0.5,0.6,0.6,0.9c0.2,0.4,0.2,0.8,0.2,1.3
				c0,0.2,0,0.4-0.1,0.5c-0.1,0.1-0.2,0.1-0.3,0.1h-4.4c0,0.3,0.1,0.6,0.2,0.9c0.1,0.2,0.2,0.5,0.4,0.6s0.4,0.3,0.6,0.4
				c0.2,0.1,0.5,0.1,0.8,0.1s0.5,0,0.7-0.1c0.2-0.1,0.4-0.1,0.5-0.2c0.2-0.1,0.3-0.1,0.4-0.2c0.1-0.1,0.2-0.1,0.3-0.1
				c0.2,0,0.3,0,0.3,0.2l0.5,0.6c-0.2,0.2-0.4,0.4-0.6,0.5c-0.2,0.1-0.5,0.3-0.7,0.3C53.3,16,53,16,52.7,16.1c-0.3,0-0.5,0-0.8,0
				c-0.5,0-1-0.1-1.4-0.2c-0.4-0.2-0.8-0.4-1.1-0.7c-0.3-0.3-0.6-0.7-0.8-1.1c-0.2-0.4-0.3-1-0.3-1.5c0-0.5,0.1-0.9,0.2-1.3
				c0.2-0.4,0.4-0.7,0.7-1c0.3-0.3,0.7-0.5,1.1-0.7C50.8,9.4,51.3,9.3,51.8,9.3z M51.9,10.4c-0.5,0-0.9,0.1-1.2,0.4
				c-0.3,0.3-0.5,0.6-0.5,1.1h3.3c0-0.2,0-0.4-0.1-0.6c-0.1-0.2-0.2-0.3-0.3-0.5c-0.1-0.1-0.3-0.2-0.5-0.3
				C52.4,10.5,52.1,10.4,51.9,10.4z"/>
			<path class="st1" d="M58.6,16.1c-0.6,0-1.1-0.2-1.4-0.5c-0.3-0.3-0.5-0.8-0.5-1.3v-3.7h-0.7c-0.1,0-0.2,0-0.2-0.1
				s-0.1-0.1-0.1-0.3V9.6l1.2-0.2l0.4-1.8c0-0.1,0.1-0.2,0.1-0.2c0.1,0,0.2-0.1,0.3-0.1h0.9v2.1h1.9v1.1h-1.9v3.6
				c0,0.2,0.1,0.4,0.2,0.5c0.1,0.1,0.3,0.2,0.5,0.2c0.1,0,0.2,0,0.3,0c0.1,0,0.1,0,0.2-0.1c0.1,0,0.1,0,0.1-0.1c0,0,0.1,0,0.1,0
				c0.1,0,0.1,0,0.1,0c0,0,0.1,0.1,0.1,0.1l0.5,0.8c-0.3,0.2-0.5,0.3-0.9,0.4S58.9,16.1,58.6,16.1z"/>
		</g>
	</g>
</g>
</svg>
